<?xml version="1.0" encoding="utf-8"?>
<!-- Generator: Adobe Illustrator 16.0.0, SVG Export Plug-In . SVG Version: 6.00 Build 0)  -->
<!DOCTYPE svg PUBLIC "-//W3C//DTD SVG 1.1//EN" "http://www.w3.org/Graphics/SVG/1.1/DTD/svg11.dtd">
<svg version="1.1" id="Capa_1" xmlns="http://www.w3.org/2000/svg" xmlns:xlink="http://www.w3.org/1999/xlink" x="0px" y="0px"
	 width="44.996px" height="45px" viewBox="0 0 44.996 45" enable-background="new 0 0 44.996 45" xml:space="preserve">
<g>
	<path d="M36.514,12.912c0-1.196-0.917-2.111-2.111-2.111h-2.109V3.769c0-1.198-0.915-2.111-2.111-2.111
		c-1.195,0-2.112,0.913-2.112,2.111v7.032h-9.846V3.769c0-1.198-0.914-2.111-2.111-2.111c-1.193,0-2.107,0.913-2.107,2.111v7.032
		h-2.11c-1.198,0-2.114,0.915-2.114,2.111c0,0.948,0.578,1.717,1.408,1.996v13.479c0,4.008,3.096,7.385,7.107,7.736v2.041
		c0,1.194,0.982,2.181,2.18,2.181h1.969v2.812c0,0.422,0.28,0.702,0.703,0.702c0.422,0,0.701-0.28,0.701-0.702v-2.812h2.043
		c1.196,0,2.178-0.986,2.178-2.181v-2.041c3.939-0.423,7.037-3.729,7.037-7.736V14.908C35.938,14.629,36.514,13.86,36.514,12.912
		L36.514,12.912z M29.479,3.769c0-0.423,0.279-0.706,0.702-0.706c0.422,0,0.702,0.283,0.702,0.706v7.032h-1.404V3.769z
		 M15.409,3.769c0-0.353,0.281-0.706,0.703-0.706s0.702,0.283,0.702,0.706v7.032h-1.405V3.769z M33.627,28.388
		c0,3.516-2.812,6.332-6.331,6.332c-0.423,0-0.703,0.279-0.703,0.702v2.743c0,0.421-0.349,0.771-0.775,0.771h-5.414
		c-0.422,0-0.771-0.351-0.771-0.771v-2.743c0-0.423-0.28-0.702-0.707-0.702c-3.516,0-6.328-2.816-6.328-6.332V15.022h21.03V28.388z
		 M34.402,13.616H11.895c-0.423,0-0.706-0.283-0.706-0.704c0-0.42,0.283-0.705,0.706-0.705h22.508c0.423,0,0.704,0.285,0.704,0.705
		C35.106,13.333,34.825,13.616,34.402,13.616L34.402,13.616z M34.402,13.616"/>
	<path d="M20.334,24.87h3.937l-3.726,3.728c-0.281,0.28-0.281,0.705,0,0.983c0.143,0.142,0.279,0.212,0.495,0.212
		c0.208,0,0.35-0.07,0.486-0.212l4.929-4.923c0.212-0.211,0.28-0.492,0.138-0.771c-0.068-0.281-0.349-0.423-0.63-0.423h-3.94
		l3.727-3.732c0.283-0.277,0.283-0.7,0-0.981c-0.281-0.283-0.703-0.283-0.983,0l-4.923,4.924c-0.211,0.213-0.211,0.492-0.143,0.773
		C19.774,24.729,20.053,24.87,20.334,24.87L20.334,24.87z M20.334,24.87"/>
</g>
<g id="Nuevo_símbolo_6">
</g>
<g id="Nuevo_símbolo_5">
</g>
</svg>
