<?xml version="1.0" standalone="no"?>
<!DOCTYPE svg PUBLIC "-//W3C//DTD SVG 20010904//EN"
 "http://www.w3.org/TR/2001/REC-SVG-20010904/DTD/svg10.dtd">
<svg version="1.0" xmlns="http://www.w3.org/2000/svg"
 width="256.000000pt" height="256.000000pt" viewBox="0 0 256.000000 256.000000"
 preserveAspectRatio="xMidYMid meet">

<g transform="translate(0.000000,256.000000) scale(0.100000,-0.100000)"
fill="#000000" stroke="none">
<path d="M1006 2544 c-9 -8 -16 -17 -16 -19 0 -11 -523 -1492 -529 -1498 -5
-5 -88 24 -185 63 -97 40 -188 72 -203 72 -15 0 -31 -8 -37 -18 -35 -60 -46
-245 -21 -353 35 -146 142 -280 276 -344 101 -49 586 -250 795 -330 250 -96
329 -117 441 -117 92 0 93 0 152 41 97 67 167 171 256 384 66 158 285 775 576
1625 55 161 59 200 22 215 -30 11 -1456 295 -1485 295 -14 0 -34 -7 -42 -16z
m759 -236 c363 -72 662 -133 665 -135 2 -2 -8 -39 -23 -81 -14 -42 -87 -252
-161 -467 -165 -480 -345 -986 -398 -1120 -64 -162 -127 -275 -184 -332 -46
-46 -58 -53 -93 -53 -53 0 -137 32 -182 69 -81 67 -130 211 -130 380 0 90 -3
111 -17 123 -9 9 -159 73 -333 143 -173 69 -322 130 -329 135 -11 7 39 159
235 717 136 389 252 718 256 731 5 12 14 22 21 22 7 0 310 -59 673 -132z
m-1120 -1486 l490 -199 11 -115 c12 -121 38 -214 79 -285 13 -24 20 -43 15
-43 -25 0 -670 262 -885 359 -151 69 -245 219 -245 391 0 75 8 102 29 95 9 -3
236 -94 506 -203z"/>
<path d="M1185 1995 c-14 -13 -25 -29 -25 -35 0 -19 48 -60 70 -60 25 0 60 34
60 59 0 21 -44 61 -67 61 -8 0 -25 -11 -38 -25z"/>
<path d="M1485 1900 c-22 -24 -14 -62 17 -78 33 -17 424 -122 452 -122 47 0
70 46 43 83 -12 18 -423 137 -471 137 -12 0 -31 -9 -41 -20z"/>
<path d="M1043 1600 c-12 -5 -25 -21 -29 -36 -6 -22 -2 -32 20 -51 35 -30 60
-29 84 2 23 29 19 59 -11 80 -24 17 -33 17 -64 5z"/>
<path d="M1317 1502 c-22 -24 -21 -55 2 -76 22 -20 425 -156 463 -156 19 0 33
8 44 26 16 24 16 27 -3 51 -15 22 -60 40 -238 100 -121 40 -227 73 -236 73 -9
0 -23 -8 -32 -18z"/>
<path d="M870 1210 c-36 -36 -17 -80 41 -95 21 -5 31 -1 48 21 27 34 26 40 -4
69 -29 30 -58 32 -85 5z"/>
<path d="M1150 1100 c-53 -53 -19 -76 237 -160 237 -79 267 -83 279 -33 4 14
3 33 -3 42 -9 15 -438 169 -475 170 -10 1 -27 -8 -38 -19z"/>
</g>
</svg>
