<?xml version="1.0" encoding="utf-8"?>
<!-- Generator: Adobe Illustrator 16.0.0, SVG Export Plug-In . SVG Version: 6.00 Build 0)  -->
<!DOCTYPE svg PUBLIC "-//W3C//DTD SVG 1.1//EN" "http://www.w3.org/Graphics/SVG/1.1/DTD/svg11.dtd">
<svg version="1.1" id="Capa_1" xmlns="http://www.w3.org/2000/svg" xmlns:xlink="http://www.w3.org/1999/xlink" x="0px" y="0px"
	 width="44.996px" height="45px" viewBox="0 0 44.996 45" enable-background="new 0 0 44.996 45" xml:space="preserve">
<g id="Nuevo_símbolo_6">
</g>
<g id="Nuevo_símbolo_5">
</g>
<g>
	<g id="_x31_3pAes_1_">
		<g>
			<path fill-rule="evenodd" clip-rule="evenodd" fill="#009BDE" d="M1.666,35.694c4.357,0.327,8.354-0.617,12.088-3.357
				c-3.742-0.689-6.395-2.486-7.699-6.229c1.166,0,2.129,0,3.094,0c-3.787-1.64-5.924-4.314-6.047-8.607
				c1.104,0.348,2.107,0.66,3.104,0.972c0.059-0.051,0.111-0.094,0.17-0.145c-3.42-3.263-4.098-6.998-2.098-11.393
				c0.33,0.312,0.564,0.495,0.756,0.71c3.891,4.445,8.803,7.049,14.566,8.107c0.666,0.124,1.48,0.34,1.99,0.066
				c0.307-0.168,0.188-1.183,0.207-1.82c0.127-3.633,1.803-6.373,5.088-7.802c3.256-1.416,6.502-1.104,9.301,1.34
				c0.498,0.437,0.943,0.616,1.582,0.362c1.441-0.565,2.896-1.086,4.453-1.675c-0.389,1.769-1.488,3.024-2.775,4.169
				c0.035,0.089,0.076,0.176,0.111,0.254c1.236-0.348,2.469-0.695,3.84-1.081c-0.145,0.276-0.195,0.468-0.312,0.581
				c-1.102,1.183-2.182,2.386-3.35,3.497c-0.408,0.391-0.609,0.73-0.6,1.289c0.146,6.498-2.205,12.088-6.418,16.917
				c-3.777,4.315-8.588,6.729-14.258,7.521c-5.666,0.789-11.002-0.087-15.988-2.938c-0.297-0.165-0.582-0.355-0.871-0.535
				C1.623,35.831,1.643,35.761,1.666,35.694z"/>
		</g>
	</g>
</g>
</svg>
