<?xml version="1.0" encoding="utf-8"?>
<!-- Generator: Adobe Illustrator 16.0.0, SVG Export Plug-In . SVG Version: 6.00 Build 0)  -->
<!DOCTYPE svg PUBLIC "-//W3C//DTD SVG 1.1//EN" "http://www.w3.org/Graphics/SVG/1.1/DTD/svg11.dtd">
<svg version="1.1" id="Capa_1" xmlns="http://www.w3.org/2000/svg" xmlns:xlink="http://www.w3.org/1999/xlink" x="0px" y="0px"
	 width="44.996px" height="45px" viewBox="0 0 44.996 45" enable-background="new 0 0 44.996 45" xml:space="preserve">
<g>
	<path d="M25.811,1.248c0,0,0.836,5.205,0.887,5.477h-8.4c0.049-0.271,0.887-5.477,0.887-5.477H1.244v42.504h11.654
		c0.041-2.518-0.156-3.908-0.434-5.48H32.52c-0.324,1.832-0.453,3.391-0.434,5.48h11.666V1.248H25.811z M23.182,8.1h3.807
		c1.281,5.27,4.061,10.033,7.984,13.715H23.182V8.1z M21.811,8.1v13.715H10.021c3.914-3.682,6.701-8.445,7.973-13.715H21.811z
		 M2.615,42.381V2.619h14.969C16.615,17.797,4.4,24.35,4.4,24.35c1.379,2.449,7.078,8.574,7.119,18.031H2.615z M21.818,36.898
		h-9.615C11.141,31.027,6.314,24.76,6.314,24.76c0.742-0.496,1.455-1.021,2.141-1.574h13.363V36.898z M23.182,36.898V23.186h13.361
		c0.689,0.553,1.4,1.078,2.145,1.574c0,0-5.035,6.635-5.891,12.139H23.182z M42.377,42.381h-8.9
		c-0.27-8.928,7.121-18.031,7.121-18.031s-11.885-5.734-13.189-21.73h14.969V42.381z M42.377,42.381"/>
</g>
<g id="Nuevo_símbolo_6">
</g>
<g id="Nuevo_símbolo_5">
</g>
</svg>
