<?xml version="1.0" encoding="utf-8"?>
<!-- Generator: Adobe Illustrator 16.0.0, SVG Export Plug-In . SVG Version: 6.00 Build 0)  -->
<!DOCTYPE svg PUBLIC "-//W3C//DTD SVG 1.1//EN" "http://www.w3.org/Graphics/SVG/1.1/DTD/svg11.dtd">
<svg version="1.1" id="Capa_1" xmlns="http://www.w3.org/2000/svg" xmlns:xlink="http://www.w3.org/1999/xlink" x="0px" y="0px"
	 width="180.239px" height="114.013px" viewBox="0 0 180.239 114.013" enable-background="new 0 0 180.239 114.013"
	 xml:space="preserve">
<g>
	<g>
		<g>
			<g>
				<path d="M167.626,48.335l-4.669-18.67c1.273-0.27,2.232-1.403,2.232-2.759v-3.012c0-6.533-5.318-11.852-11.854-11.852h-21.258
					V5.834c0-3.218-2.614-5.834-5.831-5.834H17.873c-3.212,0-5.831,2.616-5.831,5.834v51.174c0,1.558,1.264,2.821,2.822,2.821
					c1.558,0,2.821-1.264,2.821-2.821V5.834c0-0.104,0.087-0.188,0.188-0.188h108.373c0.101,0,0.185,0.084,0.185,0.188v51.174
					c0,1.561,1.267,2.824,2.822,2.824c1.561,0,2.824-1.264,2.824-2.824v-3.197h33.29h0.005c0.006,0,0.011,0,0.011,0
					c4.095,0.003,7.576,2.692,8.769,6.396h-8.773c-1.559,0-2.822,1.264-2.822,2.822v6.021c0,4.874,3.969,8.842,8.841,8.842h3.202
					v12.416h-7.379c-2.426-6.998-9.079-12.04-16.895-12.04c-7.81,0-14.468,5.042-16.889,12.04h-1.359V69.051
					c0-1.561-1.264-2.824-2.824-2.824c-1.556,0-2.822,1.264-2.822,2.824v21.258h-58.55c-2.426-6.998-9.079-12.043-16.895-12.043
					c-7.81,0-14.463,5.045-16.889,12.043H17.873c-0.101,0-0.188-0.084-0.188-0.188v-6.209h12.23c1.558,0,2.821-1.264,2.821-2.822
					c0-1.561-1.264-2.824-2.821-2.824H2.827C1.264,78.266,0,79.529,0,81.09c0,1.559,1.264,2.822,2.827,2.822h9.215v6.209
					c0,3.215,2.619,5.833,5.831,5.833h15.245c0,0.062-0.005,0.124-0.005,0.188c0,9.854,8.018,17.87,17.873,17.87
					s17.874-8.016,17.874-17.87c0-0.064,0-0.127-0.006-0.188h63.603c0,0.062-0.005,0.124-0.005,0.188
					c0,9.854,8.019,17.87,17.873,17.87c9.855,0,17.874-8.016,17.874-17.87c0-0.064-0.005-0.127-0.005-0.188h9.226
					c1.558,0,2.819-1.264,2.819-2.824V63.029C180.241,55.597,174.756,49.421,167.626,48.335z M132.077,17.688h21.258
					c3.426,0,6.212,2.783,6.212,6.206v0.188h-27.47V17.688z M132.077,48.165V29.729h25.079l4.608,18.437H132.077L132.077,48.165z
					 M50.986,108.37c-6.739,0-12.225-5.486-12.225-12.228c0-6.745,5.485-12.23,12.225-12.23c6.745,0,12.23,5.485,12.23,12.23
					C63.217,102.884,57.731,108.37,50.986,108.37z M150.325,108.37c-6.739,0-12.225-5.486-12.225-12.228
					c0-6.745,5.485-12.23,12.225-12.23c6.745,0,12.23,5.485,12.23,12.23C162.556,102.884,157.07,108.37,150.325,108.37z
					 M174.599,72.247h-3.197c-1.766,0-3.202-1.434-3.202-3.196v-3.2h6.399V72.247L174.599,72.247z"/>
			</g>
		</g>
		<g>
			<g>
				<path d="M50.986,90.309c-3.212,0-5.831,2.616-5.831,5.834c0,3.215,2.619,5.83,5.831,5.83c3.218,0,5.834-2.615,5.834-5.83
					C56.82,92.925,54.204,90.309,50.986,90.309z"/>
			</g>
		</g>
		<g>
			<g>
				<path d="M150.325,90.309c-3.215,0-5.83,2.616-5.83,5.834c0,3.215,2.615,5.83,5.83,5.83c3.218,0,5.836-2.615,5.836-5.83
					C156.161,92.925,153.543,90.309,150.325,90.309z"/>
			</g>
		</g>
		<g>
			<g>
				<path d="M117.213,78.269H75.071c-1.558,0-2.821,1.264-2.821,2.821c0,1.559,1.264,2.822,2.821,2.822h42.142
					c1.558,0,2.821-1.264,2.821-2.822C120.034,79.532,118.771,78.269,117.213,78.269z"/>
			</g>
		</g>
		<g>
			<g>
				<path d="M44.968,66.227H8.846c-1.559,0-2.822,1.264-2.822,2.824c0,1.558,1.264,2.821,2.822,2.821h36.122
					c1.558,0,2.821-1.264,2.821-2.821C47.789,67.49,46.525,66.227,44.968,66.227z"/>
			</g>
		</g>
		<g>
			<g>
				<path d="M98.137,27.919c-1.102-1.101-2.888-1.101-3.989,0l-25.1,25.098L55.995,39.962c-1.102-1.104-2.893-1.104-3.994,0
					c-1.101,1.101-1.101,2.888,0,3.991l15.053,15.052c0.553,0.551,1.273,0.824,1.994,0.824c0.726,0,1.446-0.273,1.999-0.824
					l27.09-27.095C99.237,30.809,99.237,29.023,98.137,27.919z"/>
			</g>
		</g>
	</g>
</g>
<g id="Nuevo_símbolo_6">
</g>
<g id="Nuevo_símbolo_5">
</g>
</svg>
