<?xml version="1.0" encoding="utf-8"?>
<!-- Generator: Adobe Illustrator 16.0.0, SVG Export Plug-In . SVG Version: 6.00 Build 0)  -->
<!DOCTYPE svg PUBLIC "-//W3C//DTD SVG 1.1//EN" "http://www.w3.org/Graphics/SVG/1.1/DTD/svg11.dtd">
<svg version="1.1" id="Capa_1" xmlns="http://www.w3.org/2000/svg" xmlns:xlink="http://www.w3.org/1999/xlink" x="0px" y="0px"
	 width="44.996px" height="45px" viewBox="0 0 44.996 45" enable-background="new 0 0 44.996 45" xml:space="preserve">
<path d="M39.848,37.285l-8.797-8.797c2.314-2.797,3.577-6.277,3.577-9.953c0-4.178-1.627-8.106-4.581-11.061
	c-2.955-2.953-6.881-4.58-11.059-4.58c-4.177,0-8.106,1.627-11.061,4.58c-2.953,2.954-4.58,6.883-4.58,11.061
	c0,4.177,1.627,8.104,4.58,11.058c2.954,2.954,6.884,4.582,11.061,4.582c3.673,0,7.154-1.263,9.951-3.577l8.8,8.8
	c0.292,0.29,0.675,0.436,1.055,0.436c0.382,0,0.765-0.146,1.054-0.436C40.433,38.812,40.433,37.868,39.848,37.285z M6.331,18.535
	c0-6.979,5.677-12.657,12.657-12.657c6.977,0,12.653,5.679,12.653,12.657c0,3.483-1.415,6.644-3.701,8.937
	c-0.003,0.003-0.007,0.003-0.01,0.006c-0.002,0.003-0.002,0.007-0.006,0.009c-2.292,2.286-5.452,3.703-8.937,3.703
	C12.008,31.189,6.331,25.512,6.331,18.535z"/>
<g id="Nuevo_símbolo_6">
</g>
<g id="Nuevo_símbolo_5">
</g>
</svg>
