<?xml version="1.0" encoding="utf-8"?>
<!-- Generator: Adobe Illustrator 16.0.0, SVG Export Plug-In . SVG Version: 6.00 Build 0)  -->
<!DOCTYPE svg PUBLIC "-//W3C//DTD SVG 1.1//EN" "http://www.w3.org/Graphics/SVG/1.1/DTD/svg11.dtd">
<svg version="1.1" id="Capa_1" xmlns="http://www.w3.org/2000/svg" xmlns:xlink="http://www.w3.org/1999/xlink" x="0px" y="0px"
	 width="44.996px" height="45px" viewBox="0 0 44.996 45" enable-background="new 0 0 44.996 45" xml:space="preserve">
<path d="M37.029,7.972c-3.875-3.877-9.037-6.01-14.529-6.01c-5.496,0-10.656,2.133-14.531,6.01
	c-2.812,2.809-4.732,6.342-5.561,10.211c-0.805,3.77-0.541,7.672,0.764,11.291c0.188,0.527,0.695,0.881,1.254,0.881
	c0.154,0,0.307-0.027,0.451-0.078c0.338-0.119,0.604-0.365,0.756-0.688c0.15-0.322,0.168-0.684,0.047-1.021
	c-1.133-3.148-1.363-6.547-0.66-9.828c0.719-3.365,2.391-6.436,4.838-8.883C13.225,6.485,17.717,4.63,22.5,4.63
	c4.781,0,9.27,1.855,12.641,5.227c3.322,3.32,5.178,7.734,5.232,12.426c0.057,4.686-1.691,9.135-4.916,12.525l-0.121,0.129
	c-0.061,0.068-0.129,0.137-0.195,0.205c-3.371,3.373-7.282,5.227-12.065,5.227c-4.766,0-9.032-1.842-12.032-5.189
	c0-0.004,0-0.006,0-0.008c0-0.158-0.571-0.314-0.567-0.473l-0.274-0.217c0.004-0.082-0.138-0.166-0.13-0.252
	c0.002-0.039-0.065-0.078-0.063-0.119l-0.021-0.115c0.002-0.076-0.007-0.152,0.002-0.227l0.017-0.225
	c0.012-0.078,0.013-0.156,0.025-0.236l0.042-0.271c0.014-0.062,0.021-0.123,0.034-0.186c0.006-0.045,0.016-0.088,0.023-0.135
	l0.027-0.127c0.012-0.061,0.025-0.125,0.039-0.186l0.047-0.207c0.021-0.078,0.041-0.16,0.062-0.236l0.057-0.213
	c0.02-0.078,0.043-0.152,0.066-0.229c0.02-0.066,0.041-0.133,0.061-0.199c0.027-0.078,0.051-0.158,0.078-0.232l0.068-0.197
	c0.029-0.078,0.057-0.154,0.088-0.236c0.023-0.062,0.049-0.123,0.074-0.189c0.029-0.076,0.059-0.152,0.094-0.229
	c0.027-0.062,0.053-0.125,0.08-0.188c0.035-0.074,0.066-0.15,0.102-0.225l0.092-0.184c0.037-0.074,0.07-0.15,0.107-0.221
	c0.033-0.061,0.064-0.119,0.098-0.188c0.037-0.07,0.078-0.141,0.115-0.211l0.1-0.18c0.045-0.07,0.086-0.141,0.129-0.211
	c0.033-0.059,0.07-0.115,0.107-0.178c0.045-0.068,0.088-0.137,0.133-0.201l0.113-0.174c0.047-0.07,0.094-0.137,0.148-0.211
	c0.035-0.051,0.074-0.104,0.111-0.158c0.051-0.064,0.098-0.133,0.15-0.193l0.123-0.164c0.051-0.064,0.105-0.127,0.168-0.205
	c0.037-0.047,0.078-0.096,0.119-0.143c0.053-0.064,0.107-0.127,0.164-0.188l0.131-0.15c0.059-0.062,0.117-0.123,0.176-0.186
	l0.031-0.033c0.037-0.037,0.07-0.074,0.107-0.111c0.053-0.055,0.107-0.107,0.162-0.158l0.051-0.049
	c0.037-0.037,0.072-0.072,0.111-0.109c0.051-0.049,0.104-0.096,0.154-0.143l0.18-0.164c0.053-0.047,0.111-0.094,0.168-0.143
	l0.182-0.152c0.055-0.043,0.104-0.086,0.164-0.129l0.193-0.152c0.057-0.045,0.115-0.088,0.174-0.129l0.197-0.141
	c0.078-0.057,0.158-0.109,0.252-0.174l0.129-0.086c0.111-0.072,0.223-0.143,0.338-0.209l0.053-0.035
	c0.133-0.08,0.268-0.154,0.402-0.23l0.176-0.092c0.076-0.045,0.154-0.084,0.234-0.123c0.031-0.016,0.062-0.031,0.094-0.047
	c1.553,1.363,3.521,2.111,5.588,2.111c2.064,0,4.033-0.748,5.584-2.111c2.623,1.305,4.783,3.561,5.961,6.23
	c0.213,0.486,0.691,0.799,1.221,0.799c0.186,0,0.367-0.039,0.539-0.113c0.324-0.145,0.576-0.404,0.705-0.738
	c0.127-0.332,0.121-0.695-0.025-1.021c-1.357-3.088-3.711-5.648-6.664-7.258c0.762-1.297,1.158-2.762,1.158-4.27
	c0-4.676-3.805-8.482-8.479-8.482c-0.738,0-1.334,0.6-1.334,1.334c0,0.736,0.596,1.334,1.334,1.334c3.203,0,5.812,2.609,5.812,5.814
	c0,1.434-0.535,2.811-1.5,3.883c-1.105,1.229-2.676,1.93-4.312,1.93s-3.209-0.701-4.314-1.93l-0.014-0.012
	c-0.959-1.074-1.488-2.445-1.488-3.871c0-1.564,0.615-3.031,1.729-4.135c0.252-0.248,0.395-0.582,0.395-0.939
	c0.002-0.357-0.135-0.691-0.387-0.943c-0.252-0.258-0.588-0.398-0.947-0.398c-0.354,0-0.688,0.137-0.939,0.389
	c-1.623,1.602-2.516,3.742-2.516,6.027c0,1.508,0.398,2.971,1.156,4.268c-0.004,0-0.008,0-0.01,0.004
	c-0.049,0.025-0.094,0.053-0.143,0.08l-0.064,0.035c-0.09,0.053-0.184,0.105-0.275,0.16c-0.047,0.027-0.092,0.057-0.141,0.086
	l-0.115,0.07c-0.072,0.043-0.145,0.088-0.211,0.131c-0.049,0.035-0.1,0.064-0.146,0.1l-0.07,0.047
	c-0.082,0.053-0.162,0.107-0.244,0.162c-0.066,0.049-0.137,0.098-0.205,0.146c-0.08,0.057-0.158,0.117-0.238,0.176
	c-0.068,0.051-0.137,0.102-0.199,0.154c-0.078,0.061-0.156,0.119-0.23,0.18c-0.061,0.049-0.117,0.098-0.178,0.145l-0.021,0.018
	c-0.074,0.064-0.146,0.127-0.219,0.188c-0.064,0.057-0.131,0.113-0.191,0.17c-0.07,0.062-0.143,0.131-0.217,0.197
	c-0.061,0.059-0.121,0.113-0.18,0.174c-0.072,0.066-0.141,0.137-0.207,0.205c-0.062,0.057-0.123,0.117-0.176,0.176
	c-0.07,0.072-0.139,0.145-0.207,0.217l-0.047,0.051c-0.039,0.043-0.076,0.086-0.117,0.129c-0.053,0.061-0.107,0.123-0.162,0.184
	l-0.08,0.098c-0.037,0.041-0.074,0.086-0.111,0.127c-0.055,0.066-0.107,0.133-0.162,0.199l-0.084,0.104
	c-0.031,0.043-0.064,0.08-0.092,0.117c-0.057,0.07-0.107,0.143-0.16,0.213l-0.088,0.115c-0.029,0.035-0.051,0.072-0.074,0.104
	c-0.084,0.117-0.166,0.232-0.25,0.354l-0.061,0.09c-0.098,0.148-0.195,0.297-0.291,0.451l-0.094,0.16
	c-0.061,0.1-0.121,0.201-0.18,0.299c-0.025,0.051-0.057,0.098-0.08,0.15l-0.027,0.045c-0.051,0.096-0.105,0.186-0.15,0.281
	c-0.031,0.057-0.061,0.111-0.09,0.168l-0.025,0.055c-0.043,0.088-0.088,0.174-0.129,0.258c-0.027,0.055-0.049,0.111-0.076,0.166
	l-0.051,0.111c-0.033,0.072-0.068,0.145-0.098,0.217c-0.035,0.076-0.064,0.152-0.105,0.24c-0.033,0.086-0.07,0.174-0.104,0.262
	c-0.031,0.072-0.059,0.148-0.092,0.232c-0.033,0.092-0.066,0.184-0.102,0.277c-0.025,0.08-0.055,0.156-0.08,0.23
	c-0.031,0.096-0.062,0.191-0.092,0.285c-0.023,0.078-0.051,0.158-0.074,0.242c-0.025,0.094-0.053,0.189-0.08,0.281
	c-0.02,0.082-0.045,0.164-0.064,0.242c-0.023,0.086-0.045,0.17-0.064,0.256l-0.01,0.035c-0.018,0.082-0.037,0.162-0.055,0.244
	c-0.023,0.098-0.043,0.199-0.061,0.295l-0.006,0.027c-0.014,0.072-0.031,0.145-0.041,0.217c-0.02,0.102-0.037,0.201-0.055,0.303
	l-0.006,0.035c-0.01,0.07-0.021,0.137-0.031,0.209c-0.012,0.092-0.027,0.184-0.035,0.277l-0.014,0.104
	c-0.008,0.057-0.014,0.111-0.021,0.168c-0.01,0.111-0.02,0.223-0.029,0.332l-0.008,0.07c-0.002,0.049-0.01,0.1-0.012,0.15
	c-0.012,0.125-0.018,0.252-0.021,0.379l-0.01,0.184c-0.006,0.188-0.012,0.375-0.012,0.564c0,0.201,0.008,0.395,0.016,0.609
	c0.002,0.074,0.014,0.148,0.027,0.215l0.01,0.045c0.016,0.062,0.037,0.131,0.07,0.213c0.029,0.068,0.064,0.131,0.094,0.178
	l0.023,0.037c0.033,0.051,0.074,0.1,0.115,0.148l0.131,0.141c0.086,0.094,0.172,0.182,0.26,0.271
	c3.875,3.873,9.035,6.008,14.531,6.008c5.492,0,10.654-2.135,14.525-6.008c0.09-0.088,0.176-0.178,0.262-0.271l0.105-0.111
	c3.705-3.898,5.711-9.01,5.65-14.395C42.979,16.858,40.84,11.786,37.029,7.972z"/>
<g id="Nuevo_símbolo_6">
</g>
<g id="Nuevo_símbolo_5">
</g>
</svg>
