<?xml version="1.0" encoding="utf-8"?>
<!-- Generator: Adobe Illustrator 16.0.0, SVG Export Plug-In . SVG Version: 6.00 Build 0)  -->
<!DOCTYPE svg PUBLIC "-//W3C//DTD SVG 1.1//EN" "http://www.w3.org/Graphics/SVG/1.1/DTD/svg11.dtd">
<svg version="1.1" id="Capa_1" xmlns="http://www.w3.org/2000/svg" xmlns:xlink="http://www.w3.org/1999/xlink" x="0px" y="0px"
	 width="170.315px" height="133.736px" viewBox="0 0 170.315 133.736" enable-background="new 0 0 170.315 133.736"
	 xml:space="preserve">
<g>
	<g>
		<g>
			<g>
				<path d="M149.168,0H8.954C4.02,0,0,4.02,0,8.954v91.445c0,4.936,4.02,8.952,8.954,8.952h97.54c1.578,0,2.857-1.278,2.857-2.856
					c0-1.579-1.279-2.86-2.857-2.86H8.954c-1.786,0-3.24-1.451-3.24-3.237V8.954c0-1.786,1.454-3.237,3.24-3.237h140.214
					c1.787,0,3.235,1.451,3.235,3.237v39.627c0,1.578,1.281,2.857,2.86,2.857c1.578,0,2.856-1.279,2.856-2.857V8.954
					C158.12,4.02,154.106,0,149.168,0z"/>
			</g>
		</g>
		<g>
			<g>
				<path d="M48.581,21.34H24.196c-3.258,0-5.907,2.646-5.907,5.904v18.287c0,3.258,2.649,5.907,5.907,5.907h24.385
					c3.255,0,5.901-2.649,5.901-5.907V27.244C54.482,23.986,51.836,21.34,48.581,21.34z M30.481,45.724h-6.285
					c-0.106,0-0.192-0.086-0.192-0.192V27.244c0-0.104,0.086-0.19,0.192-0.19h6.285V45.724z M48.769,45.531
					c0,0.106-0.081,0.192-0.188,0.192H36.195v-6.478h3.24c1.579,0,2.857-1.279,2.857-2.86c0-1.578-1.278-2.854-2.857-2.854h-3.24
					v-6.479h12.386c0.106,0,0.188,0.086,0.188,0.19V45.531z"/>
			</g>
		</g>
		<g>
			<g>
				<path d="M123.257,18.29c-3.375,0-6.514,1.018-9.135,2.755c-2.7-1.788-5.877-2.755-9.152-2.755
					c-9.138,0-16.574,7.434-16.574,16.574c0,9.139,7.437,16.574,16.574,16.574c3.374,0,6.516-1.016,9.14-2.756
					c2.699,1.786,5.882,2.756,9.147,2.756c9.14,0,16.574-7.436,16.574-16.574C139.831,25.724,132.396,18.29,123.257,18.29z
					 M109.828,44.569c-1.461,0.736-3.11,1.154-4.858,1.154c-5.986,0-10.857-4.871-10.857-10.859c0-5.986,4.871-10.857,10.857-10.857
					c1.702,0,3.367,0.4,4.866,1.151c-1.981,2.73-3.151,6.082-3.151,9.706C106.685,38.388,107.804,41.773,109.828,44.569z
					 M123.257,45.724c-1.7,0-3.365-0.403-4.864-1.154c1.979-2.73,3.151-6.082,3.151-9.705c0-1.578-1.279-2.857-2.86-2.857
					c-1.575,0-2.856,1.279-2.856,2.857c0,2.154-0.63,4.158-1.716,5.848c-1.105-1.728-1.713-3.75-1.713-5.848
					c0-5.986,4.87-10.857,10.858-10.857s10.859,4.871,10.859,10.857C134.116,40.853,129.245,45.724,123.257,45.724z"/>
			</g>
		</g>
		<g>
			<g>
				<path d="M45.531,67.061H21.146c-1.578,0-2.857,1.276-2.857,2.857c0,1.578,1.279,2.857,2.857,2.857h24.385
					c1.578,0,2.856-1.279,2.856-2.857C48.388,68.337,47.109,67.061,45.531,67.061z"/>
			</g>
		</g>
		<g>
			<g>
				<path d="M109.544,85.351H21.146c-1.578,0-2.857,1.276-2.857,2.854c0,1.581,1.279,2.856,2.857,2.856h88.396
					c1.578,0,2.856-1.275,2.856-2.856C112.398,86.627,111.12,85.351,109.544,85.351z"/>
			</g>
		</g>
		<g>
			<g>
				<path d="M82.11,67.061H57.726c-1.578,0-2.857,1.276-2.857,2.857c0,1.578,1.279,2.857,2.857,2.857H82.11
					c1.578,0,2.856-1.279,2.856-2.857C84.967,68.337,83.688,67.061,82.11,67.061z"/>
			</g>
		</g>
		<g>
			<g>
				<path d="M112.589,67.061H94.303c-1.581,0-2.86,1.276-2.86,2.857c0,1.578,1.279,2.857,2.86,2.857h18.286
					c1.579,0,2.857-1.279,2.857-2.857C115.446,68.337,114.168,67.061,112.589,67.061z"/>
			</g>
		</g>
		<g>
			<g>
				<path d="M164.218,88.867V76.013c0-11.659-9.487-21.145-21.146-21.145s-21.145,9.485-21.145,21.145v12.854
					c-3.542,1.195-6.098,4.544-6.098,8.482v27.435c0,4.936,4.017,8.952,8.955,8.952h36.574c4.938,0,8.957-4.017,8.957-8.952V97.35
					C170.315,93.411,167.758,90.062,164.218,88.867z M127.641,76.013c0-8.51,6.923-15.43,15.431-15.43s15.43,6.92,15.43,15.43
					v12.383h-30.86V76.013L127.641,76.013z M164.599,124.784c0,1.786-1.454,3.237-3.24,3.237h-36.574
					c-1.786,0-3.24-1.451-3.24-3.237V97.35c0-1.786,1.454-3.237,3.24-3.237h36.574c1.786,0,3.24,1.451,3.24,3.237V124.784z"/>
			</g>
		</g>
		<g>
			<g>
				<path d="M143.071,100.587c-4.099,0-7.433,3.335-7.433,7.433c0,3.083,1.894,5.734,4.572,6.856v3.811
					c0,1.578,1.281,2.857,2.86,2.857c1.578,0,2.856-1.279,2.856-2.857v-3.811c2.683-1.122,4.575-3.773,4.575-6.856
					C150.5,103.922,147.169,100.587,143.071,100.587z M143.071,109.732c-0.946,0-1.713-0.769-1.713-1.713
					c0-0.946,0.769-1.716,1.713-1.716c0.946,0,1.712,0.77,1.712,1.716C144.783,108.964,144.018,109.732,143.071,109.732z"/>
			</g>
		</g>
	</g>
</g>
<g id="Nuevo_símbolo_6">
</g>
<g id="Nuevo_símbolo_5">
</g>
</svg>
