<?xml version="1.0" encoding="utf-8"?>
<!-- Generator: Adobe Illustrator 16.0.0, SVG Export Plug-In . SVG Version: 6.00 Build 0)  -->
<!DOCTYPE svg PUBLIC "-//W3C//DTD SVG 1.1//EN" "http://www.w3.org/Graphics/SVG/1.1/DTD/svg11.dtd">
<svg version="1.1" id="Capa_1" xmlns="http://www.w3.org/2000/svg" xmlns:xlink="http://www.w3.org/1999/xlink" x="0px" y="0px"
	 width="44.996px" height="45px" viewBox="0 0 44.996 45" enable-background="new 0 0 44.996 45" xml:space="preserve">
<g id="Nuevo_símbolo_6">
</g>
<g id="Nuevo_símbolo_5">
</g>
<g id="_x32_4lMOM_7_">
	<g>
		<g>
			<path d="M13.013,42.362l-0.125-0.002c-2.549-0.072-5.111-0.043-7.67-0.014l-0.127,0.002c-0.01,0-0.02,0-0.027,0
				c-0.369,0-1.125-0.015-1.697-0.596c-0.592-0.602-0.578-1.417-0.574-1.685c0.037-2.387,0.039-4.913,0.004-8.19
				c-0.01-0.896,0.305-1.646,0.957-2.295c3.258-3.237,6.508-6.48,9.742-9.737c1.789-1.802,3.566-3.614,5.342-5.426l2.855-2.908
				c0.168-0.172,0.35-0.334,0.523-0.489l1.182-1.085l11.621,11.638l-0.998,1.085c-0.146,0.16-0.312,0.342-0.486,0.517l-4.939,4.942
				c-3.955,3.958-7.912,7.914-11.865,11.875c-0.154,0.154-0.289,0.322-0.424,0.49c-0.107,0.131-0.215,0.262-0.324,0.389
				C15.368,41.569,14.481,42.362,13.013,42.362z M9.353,39.526c1.205,0,2.412,0.013,3.617,0.048l0.043,1.395v-1.395
				c0.27,0,0.443-0.053,0.871-0.539c0.086-0.098,0.174-0.204,0.26-0.31c0.197-0.243,0.396-0.484,0.617-0.704
				c3.949-3.957,7.906-7.916,11.861-11.873l4.514-4.515l-7.803-7.814l-2.506,2.553c-1.779,1.815-3.561,3.632-5.354,5.438
				c-3.238,3.263-6.494,6.51-9.756,9.751c-0.137,0.134-0.137,0.158-0.135,0.289c0.033,3.048,0.035,5.454,0.006,7.705
				C6.843,39.54,8.099,39.526,9.353,39.526z"/>
		</g>
		<g>
			<path d="M36.091,20.452L24.573,8.938l0.844-1.067c0.117-0.157,0.252-0.329,0.404-0.483l0.725-0.729
				c0.828-0.831,1.654-1.663,2.494-2.479c2.111-2.056,4.602-2.054,6.695-0.003c0.635,0.624,1.264,1.257,1.891,1.891
				c1.035,1.046,2.105,2.129,3.193,3.135c0.898,0.833,1.402,2.094,1.385,3.458c-0.02,1.325-0.545,2.535-1.443,3.32
				c-0.717,0.625-1.379,1.312-2.082,2.038c-0.332,0.346-0.666,0.69-1.006,1.028c-0.143,0.141-0.289,0.268-0.438,0.395L36.091,20.452
				z M28.364,8.784l7.812,7.811c0.166-0.17,0.332-0.343,0.498-0.514c0.711-0.737,1.447-1.5,2.252-2.201
				c0.299-0.261,0.482-0.732,0.488-1.26c0.01-0.56-0.18-1.086-0.49-1.374c-1.131-1.046-2.225-2.15-3.281-3.219
				c-0.617-0.623-1.234-1.247-1.859-1.86c-1.018-0.996-1.768-0.992-2.801,0.01c-0.828,0.807-1.645,1.627-2.461,2.448L28.364,8.784z"
				/>
		</g>
	</g>
</g>
</svg>
