<?xml version="1.0" encoding="utf-8"?>
<!-- Generator: Adobe Illustrator 16.0.0, SVG Export Plug-In . SVG Version: 6.00 Build 0)  -->
<!DOCTYPE svg PUBLIC "-//W3C//DTD SVG 1.1//EN" "http://www.w3.org/Graphics/SVG/1.1/DTD/svg11.dtd">
<svg version="1.1" id="Capa_1" xmlns="http://www.w3.org/2000/svg" xmlns:xlink="http://www.w3.org/1999/xlink" x="0px" y="0px"
	 width="44.996px" height="45px" viewBox="0 0 44.996 45" enable-background="new 0 0 44.996 45" xml:space="preserve">
<g id="Nuevo_símbolo_6">
</g>
<g id="Nuevo_símbolo_5">
	<g>
		<path d="M40.197,7.5c0,1.436-0.685,2.5-1.527,2.5H6.531c-0.843,0-1.527-1.064-1.527-2.5l0,0c0-1.436,0.685-2.5,1.527-2.5H38.67
			C39.513,5,40.197,6.064,40.197,7.5L40.197,7.5z"/>
		<path d="M40.197,22.5c0,1.436-0.685,2.5-1.527,2.5H6.531c-0.843,0-1.527-1.064-1.527-2.5l0,0c0-1.436,0.685-2.5,1.527-2.5H38.67
			C39.513,20,40.197,21.064,40.197,22.5L40.197,22.5z"/>
		<path d="M40.197,38.5c0,1.436-0.685,2.5-1.527,2.5H6.531c-0.843,0-1.527-1.064-1.527-2.5l0,0c0-1.436,0.685-2.5,1.527-2.5H38.67
			C39.513,36,40.197,37.064,40.197,38.5L40.197,38.5z"/>
	</g>
</g>
</svg>
