<?xml version="1.0" encoding="utf-8"?>
<!-- Generator: Adobe Illustrator 16.0.0, SVG Export Plug-In . SVG Version: 6.00 Build 0)  -->
<!DOCTYPE svg PUBLIC "-//W3C//DTD SVG 1.1//EN" "http://www.w3.org/Graphics/SVG/1.1/DTD/svg11.dtd">
<svg version="1.1" id="Capa_1" xmlns="http://www.w3.org/2000/svg" xmlns:xlink="http://www.w3.org/1999/xlink" x="0px" y="0px"
	 width="44.996px" height="45px" viewBox="0 0 44.996 45" enable-background="new 0 0 44.996 45" xml:space="preserve">
<g>
	<path d="M2.147,5.805H6.81l6.637,24.014c0.192,0.703,0.842,1.193,1.574,1.193h20.408c0.652,0,1.219-0.383,1.489-0.977l7.427-17.074
		c0.219-0.516,0.164-1.086-0.135-1.545c-0.299-0.463-0.812-0.732-1.354-0.732H20.304c-0.895,0-1.624,0.732-1.624,1.625
		c0,0.895,0.729,1.627,1.624,1.627h20.059l-6.02,13.824H16.239L9.6,3.746C9.411,3.041,8.759,2.553,8.028,2.553H2.147
		c-0.895,0-1.629,0.729-1.629,1.625C0.519,5.072,1.253,5.805,2.147,5.805L2.147,5.805z M2.147,5.805"/>
	<path d="M13.474,42.447c2.035,0,3.688-1.652,3.688-3.686s-1.652-3.686-3.688-3.686c-2.033,0-3.686,1.652-3.686,3.686
		S11.44,42.447,13.474,42.447L13.474,42.447z M13.474,42.447"/>
	<path d="M36.513,42.447h0.271c0.976-0.08,1.87-0.514,2.521-1.273c0.649-0.732,0.949-1.682,0.896-2.682
		c-0.137-2.006-1.896-3.551-3.93-3.416c-2.035,0.135-3.553,1.924-3.417,3.93C32.989,40.93,34.589,42.447,36.513,42.447
		L36.513,42.447z M36.513,42.447"/>
</g>
<g id="Nuevo_símbolo_6">
</g>
<g id="Nuevo_símbolo_5">
</g>
</svg>
