<?xml version="1.0" encoding="utf-8"?>
<!-- Generator: Adobe Illustrator 16.0.0, SVG Export Plug-In . SVG Version: 6.00 Build 0)  -->
<!DOCTYPE svg PUBLIC "-//W3C//DTD SVG 1.1//EN" "http://www.w3.org/Graphics/SVG/1.1/DTD/svg11.dtd">
<svg version="1.1" id="Capa_1" xmlns="http://www.w3.org/2000/svg" xmlns:xlink="http://www.w3.org/1999/xlink" x="0px" y="0px"
	 width="44.996px" height="45px" viewBox="0 0 44.996 45" enable-background="new 0 0 44.996 45" xml:space="preserve">
<g>
	<path d="M37.87,21.485V1.607h-5.824l-1.028,1.37v-1.37H7.703v19.878H7.016v4.561l10.967,4.801v8.465
		c0,2.645,2.15,4.805,4.802,4.805c2.653,0,4.803-2.151,4.803-4.805v-8.465l10.967-4.801v-4.561H37.87z M17.307,2.978h2.741v1.371
		c0,0.754-0.619,1.373-1.371,1.373c-0.755,0-1.37-0.609-1.37-1.373V2.978z M13.188,2.978h2.747v4.107
		c0,0.755-0.625,1.373-1.376,1.373c-0.752,0-1.371-0.61-1.371-1.373V2.978z M9.071,2.978h2.746v4.117
		c0,1.515,1.229,2.744,2.742,2.744s2.747-1.229,2.747-2.744V6.71c0.4,0.234,0.869,0.385,1.37,0.385c1.515,0,2.744-1.23,2.744-2.746
		V2.978h8.226v4.117l3.088-4.117h3.771v14.399H9.071V2.978z M9.071,18.74h27.416v2.745H9.071V18.74z M26.216,29.952v9.359
		c0,1.892-1.541,3.432-3.432,3.432c-1.894,0-3.43-1.54-3.43-3.432v-9.359L8.387,25.148v-2.292h28.789v2.292h0.007L26.216,29.952z
		 M26.216,29.952"/>
	<path d="M22.784,20.513c-1.297,0-2.346,1.051-2.346,2.347c0,1.297,1.049,2.347,2.346,2.347s2.346-1.05,2.346-2.347
		C25.13,21.563,24.081,20.513,22.784,20.513L22.784,20.513z M22.784,23.651c-0.428,0-0.781-0.351-0.781-0.781
		c0-0.438,0.354-0.782,0.781-0.782c0.429,0,0.782,0.354,0.782,0.782C23.566,23.301,23.213,23.651,22.784,23.651L22.784,23.651z
		 M22.784,23.651"/>
</g>
<g id="Nuevo_símbolo_6">
</g>
<g id="Nuevo_símbolo_5">
</g>
</svg>
