<?xml version="1.0" encoding="utf-8"?>
<!-- Generator: Adobe Illustrator 16.0.0, SVG Export Plug-In . SVG Version: 6.00 Build 0)  -->
<!DOCTYPE svg PUBLIC "-//W3C//DTD SVG 1.1//EN" "http://www.w3.org/Graphics/SVG/1.1/DTD/svg11.dtd">
<svg version="1.1" id="Capa_1" xmlns="http://www.w3.org/2000/svg" xmlns:xlink="http://www.w3.org/1999/xlink" x="0px" y="0px"
	 width="44.996px" height="45px" viewBox="0 0 44.996 45" enable-background="new 0 0 44.996 45" xml:space="preserve">
<g id="Nuevo_símbolo_6">
</g>
<g id="Nuevo_símbolo_5">
	<path d="M41.051,20c-6,0-11,0-16,0c0-5.177,0-10.401,0-16c0-3-5-3-5,0c0,0,0,7.285,0,16c-5,0-10,0-16,0c-3,0-3,5,0,5c0,0,7,0,16,0
		c0,5.684,0,11.501,0,16c0,3,5,3,5,0c0-5.599,0-10.823,0-16c6,0,12,0,16,0C44.051,25,44.051,20,41.051,20z"/>
</g>
</svg>
