<?xml version="1.0" encoding="utf-8"?>
<!-- Generator: Adobe Illustrator 16.0.0, SVG Export Plug-In . SVG Version: 6.00 Build 0)  -->
<!DOCTYPE svg PUBLIC "-//W3C//DTD SVG 1.1//EN" "http://www.w3.org/Graphics/SVG/1.1/DTD/svg11.dtd">
<svg version="1.1" id="Capa_1" xmlns="http://www.w3.org/2000/svg" xmlns:xlink="http://www.w3.org/1999/xlink" x="0px" y="0px"
	 width="44.996px" height="45px" viewBox="0 0 44.996 45" enable-background="new 0 0 44.996 45" xml:space="preserve">
<g id="Nuevo_símbolo_6">
</g>
<g id="Nuevo_símbolo_5">
</g>
<g>
	<g id="GGdfk6_1_">
		<g>
			<path fill-rule="evenodd" clip-rule="evenodd" fill="#C1272D" d="M19.932,29.587c-0.723,2.606-1.332,5.137-2.141,7.596
				c-0.779,2.354-2.157,4.421-3.678,6.375c-0.162,0.203-0.48,0.289-0.725,0.429c-0.116-0.238-0.308-0.463-0.336-0.709
				C12.66,39.838,12.562,36.403,13.395,33c0.925-3.778,1.832-7.554,2.72-11.33c0.091-0.392,0.049-0.863-0.064-1.255
				c-0.7-2.41-0.94-4.794,0.303-7.105c0.823-1.527,1.985-2.626,3.849-2.656c2.057-0.033,3.459,1.332,3.516,3.413
				c0.05,1.962-0.645,3.765-1.216,5.592c-0.355,1.123-0.698,2.25-0.951,3.393c-0.728,3.271,2.229,5.506,5.364,4.503
				c1.157-0.377,2.058-1.142,2.776-2.093c1.51-2.019,2.419-4.296,2.722-6.789c0.202-1.647,0.367-3.33,0.304-4.982
				c-0.11-3.047-1.629-5.34-4.274-6.853c-5.327-3.048-14.132-1.192-16.805,6.221c-1.07,2.956-1.086,5.929,0.793,8.646
				c0.959,1.396,0.432,2.678-0.194,3.938c-0.107,0.223-0.606,0.393-0.897,0.357c-1.459-0.184-2.501-1.078-3.278-2.249
				c-1.569-2.368-2.077-5.03-1.976-7.836c0.201-5.737,3.163-9.771,8.044-12.394c5.762-3.082,11.757-3.488,17.606-0.294
				c4.875,2.663,7.302,6.909,7.187,12.548c-0.078,3.918-0.968,7.589-3.119,10.896c-2.376,3.65-5.744,5.556-10.116,5.521
				c-2.099-0.015-3.975-0.722-5.406-2.354C20.196,29.749,20.076,29.692,19.932,29.587z"/>
		</g>
	</g>
</g>
</svg>
