<?xml version="1.0" encoding="utf-8"?>
<!-- Generator: Adobe Illustrator 16.0.0, SVG Export Plug-In . SVG Version: 6.00 Build 0)  -->
<!DOCTYPE svg PUBLIC "-//W3C//DTD SVG 1.1//EN" "http://www.w3.org/Graphics/SVG/1.1/DTD/svg11.dtd">
<svg version="1.1" id="Capa_1" xmlns="http://www.w3.org/2000/svg" xmlns:xlink="http://www.w3.org/1999/xlink" x="0px" y="0px"
	 width="44.996px" height="45px" viewBox="0 0 44.996 45" enable-background="new 0 0 44.996 45" xml:space="preserve">
<g>
	<path d="M42.645,5.248L40.09,2.694c-1.667-1.664-4.471-1.763-6.256-0.215l-4.488,3.893c-0.059,0.049-0.107,0.106-0.147,0.174
		l-4.368,7.277l-2.806,0.937c-0.239,0.078-0.418,0.272-0.475,0.519c-0.058,0.241,0.016,0.497,0.191,0.674l7.647,7.646
		c0.136,0.139,0.321,0.213,0.51,0.213c0.055,0,0.11-0.008,0.166-0.019c0.243-0.059,0.438-0.237,0.519-0.474l0.935-2.807l7.385-4.459
		c0.066-0.041,0.124-0.091,0.174-0.147l3.799-4.402C44.417,9.72,44.312,6.915,42.645,5.248L42.645,5.248z M41.784,10.561
		l-3.724,4.315l-7.516,4.538c-0.146,0.09-0.258,0.225-0.311,0.389l-0.65,1.951l-1.723-1.723l0,0l-2.551-2.55
		c-0.002,0-0.002,0-0.002,0l-1.724-1.726l1.951-0.648c0.164-0.054,0.306-0.166,0.393-0.312l4.448-7.41l4.399-3.815
		c1.228-1.063,3.153-0.998,4.295,0.146l2.553,2.554C42.77,7.412,42.838,9.338,41.784,10.561L41.784,10.561z M41.784,10.561"/>
	<path d="M40.603,30.348c-2.118-2.116-5.231-2.854-8.054-1.937L17.223,13.089c0.916-2.821,0.181-5.938-1.934-8.055
		c-2.232-2.229-5.568-2.927-8.506-1.776C6.554,3.347,6.389,3.542,6.342,3.783C6.289,4.02,6.362,4.266,6.537,4.438l4.584,4.586
		l-3.059,3.061L3.478,7.498C3.304,7.324,3.057,7.252,2.818,7.304C2.58,7.352,2.384,7.519,2.296,7.746
		c-1.15,2.938-0.454,6.273,1.776,8.502c2.117,2.119,5.23,2.855,8.055,1.938l5.729,5.729l-7.135,7.135l-4.539,2.537
		c-0.123,0.072-0.227,0.177-0.291,0.306l-2.041,4.079c-0.136,0.278-0.084,0.613,0.136,0.831l2.551,2.553
		c0.137,0.136,0.32,0.208,0.509,0.208c0.109,0,0.22-0.024,0.321-0.074l4.076-2.041c0.134-0.064,0.239-0.164,0.31-0.292l2.538-4.538
		l7.134-7.135l6.025,6.025c-0.917,2.822-0.18,5.938,1.935,8.054c1.517,1.517,3.547,2.324,5.613,2.324
		c0.972,0,1.955-0.179,2.894-0.547c0.226-0.088,0.394-0.285,0.441-0.524c0.049-0.237-0.022-0.484-0.195-0.658l-4.585-4.584
		l3.056-3.061l4.589,4.586c0.172,0.175,0.419,0.247,0.658,0.195c0.236-0.049,0.434-0.216,0.521-0.441
		C43.53,35.916,42.832,32.577,40.603,30.348L40.603,30.348z M13.2,33.672c-0.048,0.047-0.087,0.098-0.119,0.156l-2.478,4.43
		l-3.416,1.708l-1.814-1.813l1.709-3.415l4.432-2.477c0.056-0.032,0.109-0.074,0.156-0.119l7.205-7.205l1.529,1.528L13.2,33.672z
		 M41.359,37.223l-4.24-4.236c-0.279-0.282-0.736-0.282-1.017,0l-4.079,4.078c-0.136,0.136-0.213,0.316-0.213,0.51
		c0,0.192,0.077,0.372,0.213,0.508l4.238,4.24c-2.103,0.415-4.308-0.23-5.857-1.779c-1.822-1.826-2.393-4.558-1.452-6.958
		c0.104-0.269,0.042-0.571-0.161-0.771l-15.967-15.97c-0.141-0.136-0.322-0.211-0.511-0.211c-0.088,0-0.178,0.017-0.261,0.048
		c-2.405,0.944-5.135,0.372-6.963-1.452c-1.547-1.546-2.192-3.75-1.775-5.853l4.238,4.235c0.28,0.282,0.739,0.282,1.019,0
		l4.079-4.076c0.282-0.282,0.282-0.737,0-1.019l-4.237-4.24c2.1-0.417,4.302,0.228,5.853,1.777c1.827,1.826,2.398,4.558,1.457,6.958
		c-0.105,0.268-0.042,0.572,0.16,0.775l15.968,15.967c0.202,0.201,0.506,0.264,0.771,0.161c2.402-0.941,5.137-0.372,6.959,1.452
		C41.131,32.917,41.778,35.121,41.359,37.223L41.359,37.223z M41.359,37.223"/>
</g>
<g id="Nuevo_símbolo_6">
</g>
<g id="Nuevo_símbolo_5">
</g>
</svg>
