<?xml version="1.0" encoding="utf-8"?>
<!-- Generator: Adobe Illustrator 16.0.0, SVG Export Plug-In . SVG Version: 6.00 Build 0)  -->
<!DOCTYPE svg PUBLIC "-//W3C//DTD SVG 1.1//EN" "http://www.w3.org/Graphics/SVG/1.1/DTD/svg11.dtd">
<svg version="1.1" id="Capa_1" xmlns="http://www.w3.org/2000/svg" xmlns:xlink="http://www.w3.org/1999/xlink" x="0px" y="0px"
	 width="44.996px" height="45px" viewBox="0 0 44.996 45" enable-background="new 0 0 44.996 45" xml:space="preserve">
<g id="ysjThM_2_">
	<g>
		<g>
			<path fill-rule="evenodd" clip-rule="evenodd" d="M22.58,26.324c3-3.037,5.918-5.996,8.846-8.955
				c1.557-1.564,3.121-3.133,4.693-4.689c0.984-0.973,1.613-0.955,2.629,0.021c2.365,2.279,2.365,2.303,0.035,4.633
				c-4.916,4.918-9.83,9.836-14.746,14.748c-1.273,1.275-1.768,1.275-3.029,0.01c-5.162-5.156-10.312-10.316-15.469-15.477
				c-1.422-1.42-1.422-1.773-0.02-3.174c0.268-0.268,0.527-0.547,0.807-0.812c0.943-0.896,1.598-0.896,2.541,0.047
				c4.213,4.205,8.42,8.418,12.633,12.625C21.799,25.602,22.104,25.877,22.58,26.324z"/>
		</g>
	</g>
</g>
<g id="Nuevo_símbolo_6">
</g>
<g id="Nuevo_símbolo_5">
</g>
</svg>
