<?xml version="1.0" encoding="utf-8"?>
<!-- Generator: Adobe Illustrator 16.0.0, SVG Export Plug-In . SVG Version: 6.00 Build 0)  -->
<!DOCTYPE svg PUBLIC "-//W3C//DTD SVG 1.1//EN" "http://www.w3.org/Graphics/SVG/1.1/DTD/svg11.dtd">
<svg version="1.1" id="Capa_1" xmlns="http://www.w3.org/2000/svg" xmlns:xlink="http://www.w3.org/1999/xlink" x="0px" y="0px"
	 width="44.996px" height="45px" viewBox="0 0 44.996 45" enable-background="new 0 0 44.996 45" xml:space="preserve">
<path d="M40.097,7.762c-1.938-1.892-4.614-2.839-8.032-2.839c-0.945,0-1.912,0.165-2.896,0.493
	c-0.982,0.327-1.898,0.771-2.746,1.327c-0.847,0.557-1.575,1.079-2.187,1.569c-0.608,0.487-1.188,1.006-1.738,1.555
	c-0.549-0.549-1.128-1.067-1.739-1.555c-0.611-0.49-1.34-1.013-2.187-1.569c-0.845-0.556-1.761-1-2.745-1.327
	c-0.984-0.328-1.95-0.493-2.896-0.493c-3.417,0-6.096,0.947-8.035,2.839c-1.935,1.892-2.904,4.517-2.904,7.874
	c0,1.022,0.18,2.074,0.54,3.156c0.356,1.085,0.766,2.007,1.222,2.771c0.458,0.761,0.978,1.506,1.558,2.23
	c0.58,0.724,1.001,1.225,1.27,1.498c0.267,0.276,0.477,0.474,0.628,0.596l14.284,13.778c0.272,0.275,0.608,0.411,1.005,0.411
	c0.399,0,0.731-0.136,1.007-0.411l14.258-13.734c3.496-3.491,5.243-6.925,5.243-10.296C43.005,12.278,42.035,9.651,40.097,7.762
	L40.097,7.762z M35.771,23.782L22.497,36.576L9.2,23.76c-2.85-2.854-4.279-5.562-4.279-8.124c0-1.237,0.165-2.328,0.491-3.272
	c0.329-0.947,0.748-1.698,1.26-2.255c0.511-0.558,1.132-1.01,1.866-1.361c0.732-0.353,1.447-0.59,2.151-0.71
	c0.702-0.123,1.447-0.185,2.241-0.185c0.792,0,1.647,0.195,2.562,0.585c0.916,0.388,1.761,0.876,2.532,1.465
	c0.769,0.587,1.427,1.137,1.979,1.647c0.547,0.511,1.008,0.98,1.372,1.408c0.274,0.335,0.649,0.503,1.121,0.503
	c0.474,0,0.849-0.168,1.12-0.503c0.369-0.428,0.827-0.897,1.375-1.408c0.552-0.511,1.21-1.061,1.98-1.647
	c0.769-0.589,1.612-1.077,2.527-1.465c0.914-0.39,1.77-0.585,2.564-0.585c0.791,0,1.541,0.062,2.242,0.185
	c0.703,0.12,1.421,0.357,2.151,0.71c0.734,0.352,1.356,0.804,1.866,1.361c0.512,0.557,0.932,1.308,1.256,2.255
	c0.33,0.944,0.495,2.035,0.495,3.272C40.075,18.197,38.641,20.915,35.771,23.782L35.771,23.782z M35.771,23.782"/>
<g id="Nuevo_símbolo_6">
</g>
<g id="Nuevo_símbolo_5">
</g>
</svg>
