<?xml version="1.0" encoding="utf-8"?>
<!-- Generator: Adobe Illustrator 16.0.0, SVG Export Plug-In . SVG Version: 6.00 Build 0)  -->
<!DOCTYPE svg PUBLIC "-//W3C//DTD SVG 1.1//EN" "http://www.w3.org/Graphics/SVG/1.1/DTD/svg11.dtd">
<svg version="1.1" id="Capa_1" xmlns="http://www.w3.org/2000/svg" xmlns:xlink="http://www.w3.org/1999/xlink" x="0px" y="0px"
	 width="44.996px" height="45px" viewBox="0 0 44.996 45" enable-background="new 0 0 44.996 45" xml:space="preserve">
<g id="Nuevo_símbolo_6">
</g>
<g id="Nuevo_símbolo_5">
</g>
<g>
	<g id="_x37_RTDA5_4_">
		<g>
			<path fill-rule="evenodd" clip-rule="evenodd" d="M22.564,5.514c5.896,0,11.797,0.041,17.695-0.029
				c1.752-0.02,3.857,1.631,3.818,3.557c-0.006,0.389,0.041,0.768,0.041,1.156c0,8.312,0,16.621,0,24.934
				c0,2.336-1.094,3.84-3.139,4.295c-0.322,0.07-0.658,0.086-0.99,0.086c-11.65,0-23.295-0.021-34.939,0.02
				c-1.934,0.014-4.193-1.469-4.172-4.139c0.059-8.594,0.064-17.189-0.002-25.777C0.855,7.037,2.98,5.43,5.092,5.471
				C10.916,5.588,16.742,5.514,22.564,5.514z M22.564,8.717c-5.771,0-11.543,0-17.314,0c-0.936,0-1.146,0.193-1.113,1.135
				c0.074,1.92,0.75,3.654,2.125,4.971c1.453,1.4,3.062,2.635,4.637,3.9c3.023,2.42,6.027,4.861,9.105,7.195
				c2.006,1.531,3.01,1.527,5.035-0.027c3.436-2.635,6.801-5.352,10.182-8.053c1.156-0.93,2.363-1.832,3.367-2.906
				c1.273-1.377,2.34-2.932,2.299-4.969c-0.023-1.082-0.174-1.246-1.244-1.246C33.947,8.717,28.256,8.717,22.564,8.717z
				 M40.822,17.588c-1.746,1.377-3.465,2.701-5.162,4.061c-2.738,2.191-5.449,4.416-8.211,6.592
				c-1.402,1.107-2.963,1.955-4.807,2.012c-1.967,0.047-3.617-0.848-5.107-2.027c-3.182-2.5-6.32-5.051-9.48-7.58
				c-1.266-1.02-2.551-2.023-3.879-3.078c-0.014,0.256-0.039,0.451-0.039,0.652c-0.002,5.615-0.002,11.227-0.002,16.85
				c0.002,1.045,0.133,1.172,1.221,1.172c11.393,0,22.781,0,34.168-0.008c1.273,0,1.359-0.076,1.359-1.352
				c0.004-5.588,0.008-11.182,0.008-16.773C40.891,17.941,40.846,17.773,40.822,17.588z"/>
		</g>
	</g>
</g>
</svg>
