<?xml version="1.0" encoding="utf-8"?>
<!-- Generator: Adobe Illustrator 16.0.0, SVG Export Plug-In . SVG Version: 6.00 Build 0)  -->
<!DOCTYPE svg PUBLIC "-//W3C//DTD SVG 1.1//EN" "http://www.w3.org/Graphics/SVG/1.1/DTD/svg11.dtd">
<svg version="1.1" id="Capa_1" xmlns="http://www.w3.org/2000/svg" xmlns:xlink="http://www.w3.org/1999/xlink" x="0px" y="0px"
	 width="44.996px" height="45px" viewBox="0 0 44.996 45" enable-background="new 0 0 44.996 45" xml:space="preserve">
<g id="Nuevo_símbolo_6">
</g>
<g id="Nuevo_símbolo_5">
</g>
<g>
	<g>
		<path d="M15.02,10.429c0,1.972-1.599,3.571-3.571,3.571H5.591c-1.972,0-3.571-1.599-3.571-3.571V4.571C2.02,2.599,3.619,1,5.591,1
			h5.857c1.972,0,3.571,1.599,3.571,3.571V10.429z M13.02,4.785C13.02,3.799,12.22,3,11.234,3h-5.43C4.819,3,4.02,3.799,4.02,4.785
			v5.43C4.02,11.201,4.819,12,5.805,12h5.43c0.986,0,1.785-0.799,1.785-1.785V4.785z"/>
	</g>
	<g>
		<path d="M29.02,10.429c0,1.972-1.599,3.571-3.571,3.571h-5.857c-1.972,0-3.571-1.599-3.571-3.571V4.571
			C16.02,2.599,17.619,1,19.591,1h5.857c1.972,0,3.571,1.599,3.571,3.571V10.429z M27.02,4.785C27.02,3.799,26.22,3,25.234,3h-5.43
			c-0.986,0-1.785,0.799-1.785,1.785v5.43c0,0.986,0.799,1.785,1.785,1.785h5.43c0.986,0,1.785-0.799,1.785-1.785V4.785z"/>
	</g>
	<g>
		<path d="M43.02,10.429c0,1.972-1.599,3.571-3.571,3.571h-5.857c-1.972,0-3.571-1.599-3.571-3.571V4.571
			C30.02,2.599,31.619,1,33.591,1h5.857c1.972,0,3.571,1.599,3.571,3.571V10.429z M41.02,4.785C41.02,3.799,40.22,3,39.234,3h-5.43
			c-0.986,0-1.785,0.799-1.785,1.785v5.43c0,0.986,0.799,1.785,1.785,1.785h5.43c0.986,0,1.785-0.799,1.785-1.785V4.785z"/>
	</g>
	<g>
		<path d="M15.02,25.429c0,1.972-1.599,3.571-3.571,3.571H5.591c-1.972,0-3.571-1.599-3.571-3.571v-5.857
			C2.02,17.599,3.619,16,5.591,16h5.857c1.972,0,3.571,1.599,3.571,3.571V25.429z M13.02,19.785c0-0.986-0.799-1.785-1.785-1.785
			h-5.43c-0.986,0-1.785,0.799-1.785,1.785v5.43C4.02,26.201,4.819,27,5.805,27h5.43c0.986,0,1.785-0.799,1.785-1.785V19.785z"/>
	</g>
	<g>
		<path d="M29.02,25.429c0,1.972-1.599,3.571-3.571,3.571h-5.857c-1.972,0-3.571-1.599-3.571-3.571v-5.857
			c0-1.972,1.599-3.571,3.571-3.571h5.857c1.972,0,3.571,1.599,3.571,3.571V25.429z M27.02,19.785c0-0.986-0.799-1.785-1.785-1.785
			h-5.43c-0.986,0-1.785,0.799-1.785,1.785v5.43c0,0.986,0.799,1.785,1.785,1.785h5.43c0.986,0,1.785-0.799,1.785-1.785V19.785z"/>
	</g>
	<g>
		<path d="M43.02,25.429c0,1.972-1.599,3.571-3.571,3.571h-5.857c-1.972,0-3.571-1.599-3.571-3.571v-5.857
			c0-1.972,1.599-3.571,3.571-3.571h5.857c1.972,0,3.571,1.599,3.571,3.571V25.429z M41.02,19.785c0-0.986-0.799-1.785-1.785-1.785
			h-5.43c-0.986,0-1.785,0.799-1.785,1.785v5.43c0,0.986,0.799,1.785,1.785,1.785h5.43c0.986,0,1.785-0.799,1.785-1.785V19.785z"/>
	</g>
	<g>
		<path d="M15.02,40.429c0,1.972-1.599,3.571-3.571,3.571H5.591c-1.972,0-3.571-1.599-3.571-3.571v-5.857
			C2.02,32.599,3.619,31,5.591,31h5.857c1.972,0,3.571,1.599,3.571,3.571V40.429z M13.02,34.785c0-0.986-0.799-1.785-1.785-1.785
			h-5.43c-0.986,0-1.785,0.799-1.785,1.785v5.43C4.02,41.201,4.819,42,5.805,42h5.43c0.986,0,1.785-0.799,1.785-1.785V34.785z"/>
	</g>
	<g>
		<path d="M29.02,40.429c0,1.972-1.599,3.571-3.571,3.571h-5.857c-1.972,0-3.571-1.599-3.571-3.571v-5.857
			c0-1.972,1.599-3.571,3.571-3.571h5.857c1.972,0,3.571,1.599,3.571,3.571V40.429z M27.02,34.785c0-0.986-0.799-1.785-1.785-1.785
			h-5.43c-0.986,0-1.785,0.799-1.785,1.785v5.43c0,0.986,0.799,1.785,1.785,1.785h5.43c0.986,0,1.785-0.799,1.785-1.785V34.785z"/>
	</g>
	<g>
		<path d="M43.02,40.429c0,1.972-1.599,3.571-3.571,3.571h-5.857c-1.972,0-3.571-1.599-3.571-3.571v-5.857
			c0-1.972,1.599-3.571,3.571-3.571h5.857c1.972,0,3.571,1.599,3.571,3.571V40.429z M41.02,34.785c0-0.986-0.799-1.785-1.785-1.785
			h-5.43c-0.986,0-1.785,0.799-1.785,1.785v5.43c0,0.986,0.799,1.785,1.785,1.785h5.43c0.986,0,1.785-0.799,1.785-1.785V34.785z"/>
	</g>
</g>
</svg>
