<?xml version="1.0" encoding="utf-8"?>
<!-- Generator: Adobe Illustrator 16.0.0, SVG Export Plug-In . SVG Version: 6.00 Build 0)  -->
<!DOCTYPE svg PUBLIC "-//W3C//DTD SVG 1.1//EN" "http://www.w3.org/Graphics/SVG/1.1/DTD/svg11.dtd">
<svg version="1.1" id="Capa_1" xmlns="http://www.w3.org/2000/svg" xmlns:xlink="http://www.w3.org/1999/xlink" x="0px" y="0px"
	 width="44.996px" height="45px" viewBox="0 0 44.996 45" enable-background="new 0 0 44.996 45" xml:space="preserve">
<g>
	<path d="M9.017,22.047c0.57-12.004,14.287-17.31,22.904-9.068c-2.535,0.318-5.07,0.634-7.605,0.95
		c-2.1,0.265-2.045,3.582,0.078,3.315c3.688-0.46,7.375-0.92,11.064-1.384c0.822-0.101,1.738-0.732,1.619-1.695
		c-0.461-3.689-0.924-7.379-1.383-11.068C35.431,1,32.112,1.055,32.378,3.174c0.271,2.168,0.541,4.333,0.814,6.499
		C22.466,0.788,6.386,7.667,5.7,22.047C5.599,24.185,8.915,24.175,9.017,22.047z"/>
	<path d="M35.983,23.05c-0.572,12.003-14.291,17.31-22.908,9.068c2.537-0.319,5.072-0.635,7.605-0.951
		c2.1-0.264,2.047-3.582-0.074-3.315c-3.689,0.46-7.379,0.92-11.068,1.385c-0.822,0.101-1.738,0.731-1.619,1.694
		c0.463,3.69,0.924,7.38,1.387,11.069c0.264,2.098,3.58,2.042,3.314-0.08c-0.273-2.165-0.543-4.331-0.814-6.495
		c10.725,8.884,26.807,2.005,27.49-12.375C39.399,20.912,36.083,20.922,35.983,23.05z"/>
</g>
<g id="Nuevo_símbolo_6">
</g>
<g id="Nuevo_símbolo_5">
</g>
</svg>
