<?xml version="1.0" encoding="utf-8"?>
<!-- Generator: Adobe Illustrator 16.0.0, SVG Export Plug-In . SVG Version: 6.00 Build 0)  -->
<!DOCTYPE svg PUBLIC "-//W3C//DTD SVG 1.1//EN" "http://www.w3.org/Graphics/SVG/1.1/DTD/svg11.dtd">
<svg version="1.1" id="Capa_1" xmlns="http://www.w3.org/2000/svg" xmlns:xlink="http://www.w3.org/1999/xlink" x="0px" y="0px"
	 width="44.996px" height="45px" viewBox="0 0 44.996 45" enable-background="new 0 0 44.996 45" xml:space="preserve">
<g>
	<path d="M38.791,12.135h-2.894c-0.758,0-1.37,0.614-1.37,1.368v0.755c-3.629,0.103-6.561,0.994-8.844,2.441
		c-0.647,0.409-1.211,0.847-1.699,1.296v-5.156h1.313c0.829,0,1.499-0.672,1.499-1.501V8.709c0-0.829-0.67-1.501-1.499-1.501h-1.313
		V3.073c0-0.829-0.675-1.499-1.5-1.499H14.22c-0.829,0-1.502,0.67-1.502,1.499v4.135h-1.315c-0.829,0-1.5,0.672-1.5,1.501v2.629
		c0,0.829,0.671,1.501,1.5,1.501h1.315v19.716h-1.315c-0.829,0-1.5,0.673-1.5,1.501v2.629c0,0.829,0.671,1.505,1.5,1.505h1.315
		v4.131c0,0.828,0.673,1.5,1.502,1.5h8.265c0.825,0,1.5-0.672,1.5-1.5v-4.131h1.313c0.829,0,1.499-0.676,1.499-1.505v-2.629
		c0-0.828-0.67-1.501-1.499-1.501h-1.313v-2.679c0.124-0.229,0.317-0.535,0.582-0.895c0.514-0.696,1.159-1.386,1.939-2.022
		c2.053-1.671,4.695-2.711,8.021-2.842v0.731c0,0.755,0.612,1.369,1.37,1.369h2.894c0.753,0,1.367-0.614,1.367-1.369V13.503
		C40.158,12.749,39.544,12.135,38.791,12.135L38.791,12.135z M22.574,42.32c0,0.049-0.042,0.091-0.09,0.091H14.22
		c-0.053,0-0.096-0.042-0.096-0.091v-4.131h8.45V42.32z M25.393,34.056v2.629c0,0.054-0.043,0.094-0.095,0.094H11.402
		c-0.053,0-0.096-0.04-0.096-0.094v-2.629c0-0.052,0.043-0.094,0.096-0.094h13.896C25.35,33.962,25.393,34.004,25.393,34.056
		L25.393,34.056z M14.124,3.073c0-0.049,0.043-0.093,0.096-0.093h8.265c0.048,0,0.09,0.044,0.09,0.093v4.135h-8.45V3.073z
		 M11.307,11.338V8.709c0-0.053,0.043-0.095,0.096-0.095h13.896c0.052,0,0.095,0.042,0.095,0.095v2.629
		c0,0.05-0.043,0.096-0.095,0.096h-2.02V11.43h-9.857l-0.005,0.004h-2.014C11.35,11.434,11.307,11.391,11.307,11.338L11.307,11.338z
		 M25.614,25.869c-0.874,0.711-1.597,1.486-2.181,2.275c-0.373,0.508-0.636,0.939-0.787,1.246c-0.045,0.099-0.072,0.205-0.072,0.312
		v2.85h-8.45V12.839h8.45v7.015c0,0.704,0.917,0.972,1.295,0.378c0.398-0.618,1.227-1.489,2.569-2.343
		c2.062-1.306,4.732-2.124,8.089-2.222v7.043C30.865,22.84,27.91,23.998,25.614,25.869L25.614,25.869z M38.752,24.809h-2.816V23.41
		c0-0.003,0-0.007,0-0.01v-8.449c0-0.003,0-0.006,0-0.008v-1.4h2.816V24.809z M38.752,24.809"/>
</g>
<g id="Nuevo_símbolo_6">
</g>
<g id="Nuevo_símbolo_5">
</g>
</svg>
