<?xml version="1.0" encoding="utf-8"?>
<!-- Generator: Adobe Illustrator 16.0.0, SVG Export Plug-In . SVG Version: 6.00 Build 0)  -->
<!DOCTYPE svg PUBLIC "-//W3C//DTD SVG 1.1//EN" "http://www.w3.org/Graphics/SVG/1.1/DTD/svg11.dtd">
<svg version="1.1" id="Capa_1" xmlns="http://www.w3.org/2000/svg" xmlns:xlink="http://www.w3.org/1999/xlink" x="0px" y="0px"
	 width="197.132px" height="131.988px" viewBox="0 0 197.132 131.988" enable-background="new 0 0 197.132 131.988"
	 xml:space="preserve">
<g>
	<path d="M185.354,66.594l11.52-23.043c0.173-0.342,0.259-0.707,0.259-1.078c0-0.441-0.122-1.406-0.365-1.792
		C196.33,39.97,195.554,39,194.716,39h-35.66c-10.23-24-33.418-38.862-60.334-38.862c-0.056,0-0.106,0.262-0.157,0.262
		s-0.102-0.401-0.152-0.401C71.49-0.002,48.304,15,38.072,39H2.412c-0.837,0-1.608,0.965-2.05,1.676
		c-0.442,0.71-0.482,1.86-0.107,2.61L11.78,66.461L0.255,89.571c-0.167,0.343-0.254,0.737-0.254,1.108
		c0,0.441,0.122-0.165,0.361,0.221c0.436,0.711,1.213,0.1,2.05,0.1h35.66c10.231,23,33.423,40.465,60.34,40.465
		c0.051,0,0.102,0.522,0.152,0.522s0.102-0.79,0.157-0.79c26.916,0,50.108-17.197,60.339-40.197h35.655
		c0.838,0,1.614,0.633,2.051-0.078c0.441-0.709,0.482-1.07,0.106-1.821L185.354,66.594z M37.616,66.594
		c0-33.642,27.327-61.018,60.948-61.102c33.62,0.084,60.953,27.458,60.953,61.102c0,33.641-27.333,61.017-60.953,61.1
		C64.943,127.61,37.616,100.236,37.616,66.594z M6.314,85l10.317-18.976c0.34-0.68,0.34-1.099,0-1.773L6.314,44H36.17
		c-2.127,5-3.386,13-3.629,18h-8.419c-1.33,0-2.41,1.166-2.41,2.5s1.08,2.5,2.41,2.5h8.419c0.243,8,1.502,13,3.629,18H6.314z
		 M160.964,85c2.126-5,3.385-10,3.629-18h8.414c1.334,0,2.415-1.166,2.415-2.5s-1.081-2.5-2.415-2.5h-8.414
		c-0.249-5-1.503-13-3.634-18h29.854l-10.312,21.072c-0.345,0.682-0.345,0.05,0,0.726L190.813,85H160.964z"/>
	<path d="M134.393,55.008c-0.284-0.873-1.041-1.508-1.949-1.64l-21.466-3.121l-9.597-19.448c-0.406-0.825-1.243-1.346-2.167-1.346
		c-0.914,0-1.756,0.521-2.162,1.346l-9.597,19.448l-21.466,3.121c-0.908,0.132-1.665,0.767-1.949,1.64
		c-0.284,0.875-0.045,1.832,0.609,2.474l15.534,15.141L76.515,94c-0.152,0.905,0.218,1.819,0.964,2.357
		c0.741,0.54,1.726,0.611,2.537,0.185l19.198-10.094l19.203,10.094c0.35,0.186,0.735,0.276,1.121,0.276
		c0.498,0,0.995-0.154,1.416-0.459c0.746-0.54,1.116-1.454,0.959-2.359l-3.664-21.378l15.534-15.141
		C134.438,56.84,134.677,55.883,134.393,55.008z M113.972,70.052c-0.568,0.554-0.828,1.353-0.69,2.134l3.055,17.812l-15.995-8.408
		c-0.355-0.186-0.741-0.277-1.122-0.277c-0.386,0-0.771,0.092-1.127,0.277l-15.99,8.408l3.055-17.812
		c0.132-0.781-0.127-1.58-0.695-2.134l-12.94-12.613l17.884-2.599c0.786-0.114,1.462-0.608,1.816-1.319l7.993-16.206l7.998,16.206
		c0.355,0.711,1.03,1.205,1.816,1.319l17.884,2.599L113.972,70.052z"/>
	<path d="M99.214,12.204c-29.9,0-54.229,24.331-54.229,54.234s24.329,54.231,54.229,54.231c29.905,0,54.234-24.328,54.234-54.231
		S129.119,12.204,99.214,12.204z M99.214,115.058c-26.811,0-48.622-21.812-48.622-48.619c0-26.812,21.812-48.624,48.622-48.624
		s48.621,21.812,48.621,48.624C147.835,93.246,126.024,115.058,99.214,115.058z"/>
</g>
<g id="Nuevo_símbolo_6">
</g>
<g id="Nuevo_símbolo_5">
</g>
</svg>
