<?xml version="1.0" standalone="no"?>
<!DOCTYPE svg PUBLIC "-//W3C//DTD SVG 20010904//EN"
 "http://www.w3.org/TR/2001/REC-SVG-20010904/DTD/svg10.dtd">
<svg version="1.0" xmlns="http://www.w3.org/2000/svg"
 width="225.000000pt" height="225.000000pt" viewBox="0 0 225.000000 225.000000"
 preserveAspectRatio="xMidYMid meet">
<metadata>
Created by potrace 1.15, written by Peter Selinger 2001-2017
</metadata>
<g transform="translate(0.000000,225.000000) scale(0.100000,-0.100000)"
fill="#000000" stroke="none">
<path d="M831 2223 c-12 -10 -35 -54 -51 -98 -16 -44 -48 -129 -70 -190 -23
-60 -54 -146 -70 -190 -16 -44 -49 -136 -75 -205 -26 -69 -79 -217 -118 -329
-66 -191 -70 -205 -56 -230 32 -56 102 -66 134 -17 14 21 67 159 135 351 16
44 49 136 75 205 26 69 59 161 75 205 51 145 120 328 124 333 5 4 137 -20 371
-68 77 -15 273 -54 435 -86 162 -31 298 -60 302 -63 11 -10 -83 -302 -251
-785 -255 -727 -348 -876 -550 -876 -133 0 -202 79 -225 258 l-12 97 -194 78
c-780 316 -778 315 -784 293 -38 -157 4 -328 103 -426 59 -59 76 -68 536 -275
94 -43 199 -91 235 -107 153 -70 216 -88 311 -88 111 0 219 33 292 88 158 120
275 386 612 1395 123 370 140 442 112 465 -21 18 -148 48 -442 106 -154 31
-347 69 -430 86 -271 55 -460 90 -481 90 -12 0 -31 -8 -43 -17z"/>
<path d="M975 1735 c-54 -53 -15 -135 64 -135 50 0 81 29 81 77 0 47 -37 83
-85 83 -25 0 -44 -8 -60 -25z"/>
<path d="M1246 1657 c-16 -17 -26 -37 -26 -56 0 -52 34 -75 160 -111 277 -79
327 -85 359 -44 48 61 15 111 -91 142 -40 11 -122 34 -182 52 -162 46 -189 48
-220 17z"/>
<path d="M848 1386 c-22 -16 -40 -64 -33 -86 3 -9 17 -27 30 -40 37 -34 90
-33 121 4 26 30 30 53 13 89 -19 43 -94 62 -131 33z"/>
<path d="M1091 1301 c-26 -26 -28 -80 -3 -110 11 -14 73 -40 177 -75 270 -90
304 -94 329 -35 16 37 10 72 -15 95 -23 20 -358 133 -420 141 -39 5 -50 2 -68
-16z"/>
<path d="M706 1045 c-33 -30 -36 -85 -6 -115 31 -31 102 -28 129 6 29 37 26
70 -8 105 -37 37 -78 38 -115 4z"/>
<path d="M950 950 c-13 -13 -20 -33 -20 -57 0 -44 6 -56 37 -72 46 -24 386
-131 417 -131 41 0 76 32 76 70 0 44 -9 59 -49 79 -56 29 -378 131 -411 131
-17 0 -39 -9 -50 -20z"/>
</g>
</svg>
