<?xml version="1.0" encoding="utf-8"?>
<!-- Generator: Adobe Illustrator 16.0.0, SVG Export Plug-In . SVG Version: 6.00 Build 0)  -->
<!DOCTYPE svg PUBLIC "-//W3C//DTD SVG 1.1//EN" "http://www.w3.org/Graphics/SVG/1.1/DTD/svg11.dtd">
<svg version="1.1" id="Capa_1" xmlns="http://www.w3.org/2000/svg" xmlns:xlink="http://www.w3.org/1999/xlink" x="0px" y="0px"
	 width="44.996px" height="45px" viewBox="0 0 44.996 45" enable-background="new 0 0 44.996 45" xml:space="preserve">
<g id="Nuevo_símbolo_6">
</g>
<g id="Nuevo_símbolo_5">
</g>
<g>
	<g id="_x33_7PDK4_4_">
		<g>
			<path fill-rule="evenodd" clip-rule="evenodd" fill="#002F87" d="M33.337,8.521c-1.416,0-2.674-0.016-3.933,0.016
				c-0.533,0.008-1.065,0.094-1.584,0.203c-1.188,0.23-1.85,1.043-1.931,2.174c-0.127,1.791-0.094,3.59-0.119,5.387
				c-0.008,0.523,0.378,0.494,0.733,0.494c1.903,0,3.812,0.043,5.714-0.014c0.812-0.029,0.932,0.246,0.814,0.971
				c-0.299,1.957-0.558,3.924-0.786,5.895c-0.063,0.545-0.271,0.734-0.805,0.727c-1.608-0.021-3.223,0.021-4.833-0.021
				c-0.663-0.021-0.858,0.166-0.851,0.84c0.025,5.75,0.013,11.488,0.013,17.23c0,1.064-0.003,1.072-1.073,1.072
				c-1.962,0-3.918-0.031-5.877,0.016c-0.746,0.012-0.956-0.242-0.954-0.98c0.025-5.713,0-11.428,0.033-17.143
				c0-0.789-0.147-1.094-1.008-1.043c-1.494,0.08-3.004-0.008-4.504,0.037c-0.575,0.014-0.748-0.189-0.745-0.742
				c0.024-2.037,0.024-4.082,0-6.117c-0.003-0.559,0.192-0.748,0.753-0.732c1.553,0.027,3.116-0.016,4.672,0.021
				c0.634,0.014,0.83-0.211,0.83-0.842c0-2.01,0.027-4.018,0.108-6.027c0.19-4.812,3.737-8.375,8.939-8.445
				c1.824-0.031,3.644,0.078,5.471,0.115c0.647,0.006,0.954,0.225,0.937,0.957C33.304,4.52,33.337,6.469,33.337,8.521z"/>
		</g>
	</g>
</g>
</svg>
