<?xml version="1.0" standalone="no"?>
<!DOCTYPE svg PUBLIC "-//W3C//DTD SVG 20010904//EN"
 "http://www.w3.org/TR/2001/REC-SVG-20010904/DTD/svg10.dtd">
<svg version="1.0" xmlns="http://www.w3.org/2000/svg"
 width="447.000000pt" height="394.000000pt" viewBox="0 0 447.000000 394.000000"
 preserveAspectRatio="xMidYMid meet">

<g transform="translate(0.000000,394.000000) scale(0.100000,-0.100000)"
fill="#000000" stroke="none">
<path d="M935 3883 c-364 -51 -686 -331 -790 -688 -32 -109 -44 -285 -26 -373
30 -145 44 -193 82 -271 51 -107 109 -188 196 -274 121 -119 247 -194 410
-244 79 -24 104 -26 243 -27 128 0 169 4 232 22 335 92 604 363 688 691 113
442 -130 915 -563 1098 -138 58 -333 85 -472 66z m325 -184 c273 -70 478 -276
551 -554 29 -111 29 -289 0 -400 -88 -334 -360 -557 -711 -581 -152 -11 -332
33 -462 112 -84 51 -179 143 -235 228 -66 98 -71 108 -100 216 -35 127 -37
315 -5 432 114 418 532 656 962 547z"/>
<path d="M681 3453 c-11 -10 -23 -31 -27 -48 -4 -26 19 -69 161 -305 91 -151
178 -286 192 -298 33 -30 31 -31 288 58 236 81 261 97 251 159 -6 40 -37 71
-71 71 -12 0 -98 -27 -191 -59 -93 -33 -175 -61 -182 -63 -8 -2 -69 89 -153
227 -77 126 -148 240 -159 252 -24 28 -78 31 -109 6z"/>
<path d="M2135 2975 c-16 -15 -25 -36 -25 -55 0 -19 9 -40 25 -55 l24 -25 296
0 295 0 0 -720 0 -720 -1240 0 -1240 0 0 455 0 456 -25 24 c-15 16 -36 25 -55
25 -19 0 -40 -9 -55 -25 l-25 -24 0 -751 0 -751 25 -24 c23 -24 28 -25 175
-25 147 0 152 1 175 25 33 32 33 78 0 110 -22 23 -32 25 -120 25 l-95 0 0 160
0 160 1239 0 1239 0 6 -25 c7 -26 51 -55 86 -55 11 0 32 11 45 25 l25 24 0
871 0 871 -25 24 -24 25 -351 0 -351 0 -24 -25z"/>
<path d="M3095 2175 l-25 -24 0 -414 c0 -348 2 -416 15 -433 8 -10 15 -26 15
-35 0 -36 71 -39 105 -4 l25 24 0 376 0 375 215 0 c256 0 331 -12 455 -72 119
-57 228 -167 287 -288 69 -143 75 -180 80 -487 l5 -273 -217 0 -216 0 -24 -25
c-16 -15 -25 -36 -25 -55 0 -19 9 -40 25 -55 l24 -25 271 0 271 0 25 25 26 26
-4 342 -4 342 -28 85 c-107 322 -339 542 -638 605 -51 11 -142 15 -354 15
l-285 0 -24 -25z"/>
<path d="M3335 1936 l-25 -25 0 -311 0 -311 25 -24 24 -25 391 0 391 0 24 25
c21 20 25 34 25 83 0 75 -31 196 -71 277 -66 136 -199 258 -331 306 -54 19
-88 23 -245 27 l-182 4 -26 -26z m423 -164 c131 -51 234 -182 258 -330 l7 -42
-277 0 -276 0 0 201 0 202 118 -5 c84 -4 132 -11 170 -26z"/>
<path d="M935 1133 c-161 -58 -279 -179 -327 -336 -37 -124 -13 -273 61 -381
111 -160 298 -248 468 -219 133 23 263 111 338 228 48 76 67 132 72 221 13
192 -96 368 -285 462 -70 34 -83 37 -176 40 -77 2 -113 -2 -151 -15z m277
-173 c63 -29 116 -83 147 -149 21 -46 26 -71 26 -141 0 -73 -4 -93 -28 -142
-54 -110 -157 -172 -287 -172 -130 0 -233 62 -287 172 -24 49 -28 69 -28 142
0 70 5 95 26 141 41 88 110 146 204 170 54 14 177 3 227 -21z"/>
<path d="M1020 823 c-81 -31 -133 -139 -99 -206 36 -70 112 -114 175 -102 66
12 134 92 134 156 0 43 -42 112 -84 138 -32 20 -92 27 -126 14z"/>
<path d="M3095 1133 c-161 -58 -279 -179 -327 -336 -37 -124 -13 -273 61 -381
78 -113 206 -197 334 -219 208 -35 435 105 521 323 10 25 21 82 23 126 13 192
-96 368 -285 462 -70 34 -83 37 -176 40 -77 2 -113 -2 -151 -15z m277 -173
c63 -29 116 -83 147 -149 21 -47 26 -70 25 -142 0 -73 -4 -94 -28 -142 -53
-109 -156 -171 -286 -171 -130 0 -233 62 -287 172 -24 49 -28 69 -28 142 0 70
5 95 26 140 40 86 113 147 204 171 53 14 177 3 227 -21z"/>
<path d="M3180 823 c-81 -31 -133 -139 -99 -206 20 -39 72 -86 106 -98 47 -15
97 -4 139 33 71 62 82 126 35 199 -40 64 -119 95 -181 72z"/>
<path d="M1655 895 c-16 -15 -25 -36 -25 -55 0 -19 9 -40 25 -55 l24 -25 471
0 471 0 24 25 c16 15 25 36 25 55 0 19 -9 40 -25 55 l-24 25 -471 0 -471 0
-24 -25z"/>
</g>
</svg>
