<?xml version="1.0" encoding="utf-8"?>
<!-- Generator: Adobe Illustrator 16.0.0, SVG Export Plug-In . SVG Version: 6.00 Build 0)  -->
<!DOCTYPE svg PUBLIC "-//W3C//DTD SVG 1.1//EN" "http://www.w3.org/Graphics/SVG/1.1/DTD/svg11.dtd">
<svg version="1.1" id="Capa_1" xmlns="http://www.w3.org/2000/svg" xmlns:xlink="http://www.w3.org/1999/xlink" x="0px" y="0px"
	 width="84px" height="81px" viewBox="0 0 84 81" enable-background="new 0 0 84 81" xml:space="preserve">
<pattern  x="-258" y="-259" width="10" height="10" patternUnits="userSpaceOnUse" id="Motivo_nuevo_2" viewBox="0.792 -10.792 10 10" overflow="visible">
	<g>
		<polygon fill="none" points="0.792,-10.792 10.792,-10.792 10.792,-0.792 0.792,-0.792 		"/>
		<path fill="#5BA307" d="M9.084-0.792C9.084-0.354,8.729,0,8.292,0S7.5-0.354,7.5-0.792s0.354-0.792,0.792-0.792
			S9.084-1.229,9.084-0.792z"/>
		<path fill="#5BA307" d="M4.084-0.792C4.084-0.354,3.729,0,3.292,0S2.5-0.354,2.5-0.792s0.354-0.792,0.792-0.792
			S4.084-1.229,4.084-0.792z"/>
		<path fill="#5BA307" d="M11.584-5.792C11.584-5.354,11.229-5,10.792-5S10-5.354,10-5.792s0.354-0.792,0.792-0.792
			S11.584-6.229,11.584-5.792z"/>
		<path fill="#5BA307" d="M6.584-5.792C6.584-5.354,6.229-5,5.792-5S5-5.354,5-5.792s0.354-0.792,0.792-0.792
			S6.584-6.229,6.584-5.792z"/>
		<path fill="#5BA307" d="M1.584-5.792C1.584-5.354,1.229-5,0.792-5S0-5.354,0-5.792s0.354-0.792,0.792-0.792
			S1.584-6.229,1.584-5.792z"/>
		<path fill="#5BA307" d="M9.084-10.792C9.084-10.354,8.729-10,8.292-10S7.5-10.354,7.5-10.792s0.354-0.792,0.792-0.792
			S9.084-11.229,9.084-10.792z"/>
		<path fill="#5BA307" d="M4.084-10.792C4.084-10.354,3.729-10,3.292-10S2.5-10.354,2.5-10.792s0.354-0.792,0.792-0.792
			S4.084-11.229,4.084-10.792z"/>
	</g>
</pattern>
<g>
	<path fill="none" stroke="#4E8716" stroke-miterlimit="10" d="M81.012,0.5c-24.367,0-42.512,0-66.512,0c-5,0-5,7,0,7c0,0,37,0,62,0
		c0,22,0,44,0,66c-23,0-39,0-62,0c-5,0-5,7,0,7c24,0,42.145,0,66.512,0c2.109,0,2.488-1.84,2.488-3.949c0-24.367,0-48.734,0-73.102
		C83.5,1.34,83.121,0.5,81.012,0.5z"/>
	<pattern  id="SVGID_1_" xlink:href="#Motivo_nuevo_2" patternTransform="matrix(1 0 0 1 -2.5029 -0.9966)">
	</pattern>
	<rect x="34" y="7" opacity="0.4" fill="url(#SVGID_1_)" width="42" height="67"/>
	<path fill="none" stroke="#4E8716" stroke-miterlimit="10" d="M68.312,37.126c-9.078-8.31-18.23-16.618-27.308-24.927
		c-3.381-3.094-8.504,2.461-5.109,5.566C42.89,24.168,50.098,31.5,56.948,37.5c-17.225,0-36.448,0-53.448,0c-4,0-4,8,0,8
		c17,0,35.716,0,52.688,0c-6.622,6-13.557,11.358-20.292,17.522c-3.395,3.107,1.738,7.646,5.119,4.552
		c9.079-8.309,18.198-16.861,27.277-25.17C69.678,41.135,69.699,38.395,68.312,37.126z"/>
	<path opacity="0.1" fill="#4E8716" d="M71.312,40.126c-9.078-8.31-18.23-16.618-27.309-24.927
		c-3.381-3.094-8.503,2.711-5.108,5.816C45.89,27.418,53.098,35,59.948,41C42.724,41,23,41,6,41c-4,0-4,8,0,8
		c17,0,36.216,0,53.188,0c-6.622,6-13.557,11.108-20.292,17.272c-3.395,3.107,1.738,7.521,5.119,4.427
		c9.079-8.309,18.198-16.924,27.277-25.232C72.678,44.197,72.699,41.395,71.312,40.126z"/>
</g>
</svg>
